M48
;DRILL file {KiCad (2015-08-23 BZR 6115, Git 705eb1f)-product} date 02/11/2015 13:01:54
;FORMAT={-:-/ absolute / inch / decimal}
FMAT,2
INCH,TZ
T1C0.020
T2C0.028
T3C0.032
T4C0.032
T5C0.039
T6C0.039
T7C0.040
T8C0.045
T9C0.118
%
G90
G05
M72
T1
X5.5Y-4.55
X5.75Y-4.05
X5.75Y-4.2
X6.15Y-4.55
X6.15Y-5.15
X6.15Y-5.25
X6.25Y-4.25
X6.25Y-4.65
X6.45Y-4.35
X6.6Y-5.05
X6.6Y-5.35
X6.75Y-4.25
X7.2Y-4.65
X7.3Y-4.55
T2
X5.51Y-4.21
X5.6084Y-4.21
X5.65Y-3.65
X5.85Y-3.65
X6.25Y-4.94
X6.45Y-4.94
X6.7Y-3.65
X6.9Y-3.65
T3
X6.2Y-3.65
X6.3Y-3.65
T4
X5.65Y-4.45
X5.65Y-4.75
X5.75Y-4.45
X5.75Y-4.75
X5.75Y-5.05
X5.75Y-5.35
X5.85Y-4.45
X5.85Y-4.75
X5.85Y-5.05
X5.85Y-5.35
X5.95Y-4.45
X5.95Y-4.75
X5.95Y-5.05
X5.95Y-5.35
X6.05Y-4.45
X6.05Y-4.75
X6.05Y-5.05
X6.05Y-5.35
X6.15Y-4.45
X6.15Y-4.75
X6.15Y-5.05
X6.15Y-5.35
X6.25Y-4.45
X6.25Y-4.75
X6.25Y-5.05
X6.25Y-5.35
X6.35Y-4.45
X6.35Y-4.75
X6.35Y-5.05
X6.35Y-5.35
X6.45Y-4.45
X6.45Y-4.75
X6.45Y-5.05
X6.45Y-5.35
X6.55Y-4.45
X6.55Y-4.75
X6.65Y-4.45
X6.65Y-4.75
X6.75Y-4.45
X6.75Y-4.75
X6.85Y-4.45
X6.85Y-4.75
X6.95Y-4.45
X6.95Y-4.75
T6
X5.35Y-4.35
X5.35Y-4.75
X6.7Y-5.0516
X6.7Y-5.2485
X7.55Y-4.6
X7.55Y-5.
X7.6Y-4.4001
X7.6Y-4.5001
T7
X5.2Y-4.4
X5.2Y-4.5
X5.2Y-4.6
X5.2Y-4.7
X5.2Y-4.8
X5.2Y-4.9
X6.25Y-4.
X6.25Y-4.1
X6.35Y-4.
X6.35Y-4.1
X6.45Y-4.
X6.45Y-4.1
X6.55Y-4.
X6.55Y-4.1
X6.65Y-4.
X6.65Y-4.1
X6.97Y-3.89
X6.97Y-3.99
X6.97Y-4.09
X7.01Y-5.05
X7.01Y-5.15
X7.3Y-4.9
X7.3Y-5.
X7.3Y-5.1
X7.4Y-4.9
X7.4Y-5.
X7.4Y-5.1
T8
X5.65Y-3.9
X5.75Y-3.9
X5.85Y-3.9
T9
X5.21Y-3.74
X5.22Y-5.37
X7.21Y-5.44
X7.25Y-3.54
T5
X7.3344Y-4.0514G85X7.3344Y-4.0199
G05
X7.3443Y-3.88G85X7.3757Y-3.88
G05
X7.4043Y-3.74G85X7.4357Y-3.74
G05
T0
M30
